<?xml version="1.0" standalone="no"?>
<!DOCTYPE svg PUBLIC "-//W3C//DTD SVG 20010904//EN"
 "http://www.w3.org/TR/2001/REC-SVG-20010904/DTD/svg10.dtd">
<svg version="1.0" xmlns="http://www.w3.org/2000/svg"
 width="304.000000pt" height="350.000000pt" viewBox="0 0 304.000000 350.000000"
 preserveAspectRatio="xMidYMid meet">
<metadata>
Created by potrace 1.15, written by Peter Selinger 2001-2017
</metadata>
<g transform="translate(0.000000,350.000000) scale(0.100000,-0.100000)"
fill="#000000" stroke="none">
<path d="M1140 3139 c-222 -16 -317 -26 -265 -28 96 -3 380 -59 502 -99 231
-77 424 -183 563 -309 19 -18 49 -45 65 -60 45 -40 126 -139 173 -209 43 -64
122 -215 122 -232 0 -6 4 -13 8 -16 8 -5 -8 78 -53 282 -33 148 -110 362 -146
406 -5 6 -23 30 -39 53 -35 50 -116 116 -175 143 -157 72 -405 94 -755 69z"/>
<path d="M1178 2677 l-227 -182 -1 -77 c0 -43 3 -78 7 -78 3 0 14 6 22 14 15
13 230 169 379 273 l62 45 0 94 c0 52 -3 94 -7 94 -5 -1 -110 -83 -235 -183z"/>
<path d="M1470 2775 c0 -83 1 -85 33 -114 33 -31 144 -111 153 -111 2 0 33
-18 68 -40 35 -22 66 -40 70 -40 3 0 6 47 6 104 0 85 -3 105 -16 110 -8 3 -80
44 -159 91 -78 47 -146 85 -149 85 -3 0 -6 -38 -6 -85z"/>
<path d="M1470 2532 l0 -90 48 -39 c53 -44 256 -173 272 -173 6 0 10 38 10 98
l0 97 -68 39 c-37 22 -105 63 -152 91 -47 29 -91 55 -97 59 -10 6 -13 -14 -13
-82z"/>
<path d="M1319 2551 c-46 -33 -137 -97 -203 -143 -180 -127 -168 -112 -164
-190 l3 -67 173 104 c95 58 175 105 177 105 3 0 29 16 60 35 l55 36 0 89 c0
50 -4 90 -8 90 -5 0 -47 -27 -93 -59z"/>
<path d="M1290 2306 c-161 -90 -289 -167 -316 -192 -21 -18 -24 -31 -24 -88 0
-37 4 -66 8 -64 13 5 242 116 356 173 l101 50 3 93 c1 50 -1 92 -5 92 -4 0
-60 -29 -123 -64z"/>
<path d="M1470 2285 l0 -74 44 -37 c54 -45 185 -124 205 -124 8 0 30 5 48 12
32 12 33 14 33 69 0 53 -2 59 -27 72 -16 7 -88 46 -160 85 -73 40 -135 72
-138 72 -3 0 -5 -34 -5 -75z"/>
<path d="M610 2222 c0 -41 34 -329 49 -418 26 -148 85 -342 111 -364 3 -3 17
-21 30 -40 41 -61 83 -100 150 -140 119 -71 252 -103 505 -125 198 -16 657
-27 580 -14 -104 18 -278 68 -410 118 -27 10 -66 24 -85 31 -112 42 -350 182
-445 262 -124 104 -305 304 -305 336 0 13 -16 16 -23 5 -2 -5 -2 -2 0 5 1 7
-11 37 -27 67 -43 77 -110 233 -110 255 0 10 -4 22 -10 25 -5 3 -10 2 -10 -3z"/>
<path d="M1470 2055 c0 -47 3 -85 6 -85 16 0 164 55 164 61 0 6 -157 109 -166
109 -2 0 -4 -38 -4 -85z"/>
<path d="M1310 2082 c-53 -26 -155 -75 -228 -109 -124 -58 -132 -64 -132 -91
0 -19 11 -39 33 -60 l33 -32 135 50 c74 28 164 62 202 76 l67 26 0 94 c0 52
-3 94 -7 93 -5 0 -51 -21 -103 -47z"/>
<path d="M1700 2006 c-47 -18 -146 -59 -220 -91 -179 -76 -327 -134 -367 -141
-18 -3 -33 -8 -33 -10 0 -9 116 -114 126 -114 6 0 32 7 59 17 27 9 168 47 314
84 l266 68 100 -43 c55 -24 135 -60 178 -80 l77 -35 0 97 -1 97 -47 22 c-26
12 -102 54 -169 93 -144 82 -159 84 -283 36z"/>
<path d="M1770 1752 c-19 -2 -122 -26 -230 -54 -107 -28 -215 -55 -240 -60
-25 -6 -48 -13 -53 -17 -8 -8 48 -63 121 -120 37 -29 51 -33 95 -33 81 2 155
12 240 33 120 30 117 26 117 146 0 56 -3 103 -7 105 -5 2 -24 2 -43 0z"/>
<path d="M1852 1643 l3 -107 170 -43 c94 -23 171 -42 173 -43 1 0 2 40 2 89
l0 88 -42 16 c-107 40 -297 107 -303 107 -3 0 -4 -48 -3 -107z"/>
<path d="M1625 1453 c-77 -14 -142 -27 -145 -30 -6 -6 96 -101 148 -137 33
-22 51 -27 115 -29 l77 -2 0 113 0 112 -27 -1 c-16 0 -91 -12 -168 -26z"/>
<path d="M1865 1472 c-3 -3 -5 -52 -5 -108 0 -123 -19 -111 193 -117 l147 -4
0 91 0 91 -117 19 c-178 29 -213 33 -218 28z"/>
<path d="M483 1032 c-58 -24 -119 -86 -138 -140 -19 -58 -19 -156 1 -214 21
-63 74 -121 133 -147 60 -25 166 -33 254 -17 l62 11 9 48 c4 26 6 50 4 52 -2
3 -30 -4 -61 -15 -157 -55 -289 6 -310 144 -14 87 28 171 100 202 45 19 138
17 201 -5 l52 -18 0 47 0 48 -44 11 c-68 17 -213 13 -263 -7z"/>
<path d="M1483 1030 c-53 -23 -83 -70 -83 -127 0 -85 36 -118 172 -156 48 -13
99 -32 113 -41 30 -20 33 -54 6 -87 -18 -22 -27 -24 -113 -24 -78 0 -100 4
-137 23 l-44 23 6 -46 c4 -26 9 -51 12 -56 18 -28 230 -44 286 -21 75 30 118
105 104 181 -13 69 -60 98 -227 141 -85 22 -115 90 -53 118 35 16 151 14 198
-2 20 -8 39 -11 41 -7 1 3 1 25 -2 47 -5 50 -17 54 -151 54 -63 0 -97 -6 -128
-20z"/>
<path d="M871 848 c1 -238 11 -274 94 -315 55 -28 132 -36 210 -22 53 9 71 18
103 48 53 52 62 95 62 305 l0 176 -50 0 -50 0 0 -189 c0 -183 -1 -191 -23
-216 -41 -48 -166 -53 -210 -9 -32 31 -37 67 -37 257 l0 157 -50 0 -50 0 1
-192z"/>
<path d="M1860 781 l0 -261 55 0 55 0 0 115 0 116 128 -3 127 -3 3 -112 3
-113 49 0 50 0 0 260 0 260 -50 0 -50 0 0 -105 0 -105 -130 0 -129 0 -3 103
-3 102 -52 3 -53 3 0 -260z"/>
<path d="M2360 1034 c0 -6 138 -195 188 -256 32 -40 32 -41 32 -149 l0 -109
50 0 50 0 0 108 0 108 61 79 c33 44 68 89 77 100 9 11 34 44 55 73 l39 52 -54
0 -54 0 -58 -75 c-32 -41 -68 -88 -80 -104 -11 -17 -23 -31 -27 -31 -3 0 -41
47 -84 105 l-79 105 -58 0 c-32 0 -58 -3 -58 -6z"/>
<path d="M797 383 c-32 -62 -57 -101 -61 -95 -4 7 -30 12 -57 12 l-50 0 3 32
c3 31 5 33 43 33 29 0 40 4 40 15 0 10 -13 16 -42 18 -38 3 -43 6 -43 28 0 22
4 24 50 24 38 0 50 4 50 15 0 12 -14 15 -70 15 l-70 0 0 -105 0 -105 96 0 c87
0 96 2 101 20 5 18 14 20 74 20 58 0 70 -3 79 -20 6 -12 21 -20 35 -20 25 0
25 1 -26 98 -60 112 -67 122 -85 122 -8 0 -38 -48 -67 -107z"/>
<path d="M380 375 c0 -98 1 -105 20 -105 17 0 20 7 20 41 0 38 1 40 27 37 19
-2 36 -15 52 -40 17 -26 32 -38 48 -38 23 0 23 1 9 28 -8 16 -22 35 -31 42
-15 13 -15 15 6 31 28 21 31 76 4 95 -12 9 -45 14 -87 14 l-68 0 0 -105z"/>
<path d="M1110 465 c0 -10 11 -15 35 -15 l35 0 0 -90 c0 -83 2 -90 20 -90 17
0 19 8 22 88 l3 87 40 3 c38 3 42 0 78 -47 28 -39 37 -60 37 -91 0 -33 3 -40
20 -40 17 0 20 7 20 48 0 40 6 55 40 97 45 56 48 65 23 65 -10 0 -31 -18 -46
-40 -16 -22 -32 -40 -37 -40 -5 0 -21 18 -37 40 l-28 40 -112 0 c-94 0 -113
-3 -113 -15z"/>
<path d="M1895 378 c0 -90 2 -103 18 -106 15 -3 17 5 17 67 0 39 4 71 8 71 4
0 25 -31 46 -70 20 -38 41 -70 46 -70 5 0 26 32 46 70 20 39 39 68 42 66 2 -3
4 -35 3 -71 -1 -59 1 -65 19 -65 19 0 20 6 20 105 0 97 -1 105 -19 105 -14 0
-32 -23 -64 -81 -51 -93 -46 -94 -103 24 -23 47 -33 57 -54 57 l-25 0 0 -102z"/>
<path d="M2469 468 c-1 -7 -2 -55 -4 -105 l-2 -93 74 0 c58 0 73 3 73 15 0 11
-12 15 -50 15 l-50 0 0 34 c0 32 1 33 37 32 28 -1 38 3 41 17 3 14 -4 17 -37
17 -37 0 -41 3 -41 24 0 23 5 25 48 28 71 5 57 23 -20 26 -50 2 -68 -1 -69
-10z"/>
<path d="M2640 374 l0 -106 80 4 c103 4 125 22 125 101 0 80 -35 107 -139 107
l-66 0 0 -106z m153 52 c33 -49 11 -106 -46 -119 -59 -14 -67 -7 -67 66 0 35
3 67 6 70 10 10 98 -5 107 -17z"/>
</g>
</svg>
